<?xml version="1.0" standalone="no"?>
<!DOCTYPE svg PUBLIC "-//W3C//DTD SVG 20010904//EN"
 "http://www.w3.org/TR/2001/REC-SVG-20010904/DTD/svg10.dtd">
<svg version="1.0" xmlns="http://www.w3.org/2000/svg"
 width="1216.000000pt" height="1216.000000pt" viewBox="0 0 1216.000000 1216.000000"
 preserveAspectRatio="xMidYMid meet">
<metadata>
Created by potrace 1.14, written by Peter Selinger 2001-2017
</metadata>
<g transform="translate(0.000000,1216.000000) scale(0.100000,-0.100000)"
fill="#000000" stroke="none">
<path d="M3508 11873 l-3 -288 -1460 -5 -1460 -5 -5 -1460 -5 -1460 -287 -3
-288 -2 0 -2570 0 -2570 288 -2 287 -3 5 -1460 5 -1460 1460 -5 1460 -5 3
-287 2 -288 2570 0 2570 0 2 287 3 288 1460 5 1460 5 5 1460 5 1460 288 3 287
2 0 2570 0 2570 -287 2 -288 3 -5 1460 -5 1460 -1460 5 -1460 5 -3 288 -2 287
-2570 0 -2570 0 -2 -287z m749 -2214 c1 -8 -26 -79 -61 -159 l-62 -145 958 -3
958 -2 0 -361 0 -360 47 38 c132 108 405 442 559 685 77 122 222 394 265 498
12 30 23 56 23 57 2 3 936 -224 942 -229 6 -7 -52 -151 -101 -249 -19 -38 -35
-73 -35 -79 0 -7 362 -10 1120 -10 l1120 0 0 -375 0 -375 -690 0 c-379 0 -690
-2 -690 -5 0 -4 44 -61 98 -128 197 -245 346 -455 425 -597 l36 -65 -407 -215
c-223 -118 -411 -216 -417 -218 -5 -1 -32 41 -59 95 -111 225 -319 541 -527
800 l-58 71 23 15 c12 8 94 51 182 95 87 44 188 97 224 116 l65 36 -456 0
-457 0 -57 -77 c-81 -107 -278 -334 -368 -422 -52 -51 -79 -71 -88 -65 -8 4
-55 38 -105 76 -103 76 -339 231 -552 363 l-142 89 22 23 21 23 -626 0 c-345
0 -627 -3 -627 -6 0 -3 36 -63 80 -134 121 -195 275 -501 259 -514 -12 -8
-796 -428 -803 -429 -4 -1 -23 41 -41 93 -65 191 -246 564 -349 722 l-17 26
228 119 228 118 -304 3 c-236 2 -308 -1 -316 -10 -6 -7 -45 -67 -85 -132 -172
-279 -502 -711 -722 -944 l-50 -53 -66 54 c-175 140 -515 366 -740 492 -1 1
78 82 176 181 98 98 225 238 282 310 313 393 586 859 764 1305 l47 115 462
-121 c320 -85 463 -126 464 -136z m1992 -1495 c157 -81 337 -174 399 -207
l114 -60 -87 -87 -87 -87 89 -52 c588 -346 1616 -676 2710 -871 192 -34 617
-100 647 -100 5 0 -27 -37 -70 -83 -171 -179 -410 -510 -490 -679 -10 -22 -25
-38 -34 -38 -18 0 -240 44 -400 80 -444 98 -1051 288 -1512 473 -75 30 -139
52 -142 49 -3 -3 -6 -115 -6 -249 l0 -243 -1410 0 -1410 0 -2 239 -3 238 -204
-84 c-345 -141 -699 -271 -1086 -396 -162 -53 -539 -167 -540 -164 -1 1 -27
50 -58 109 -88 169 -222 361 -376 541 -42 49 -86 101 -99 117 l-23 28 138 32
c1106 255 2125 635 2865 1069 278 162 564 365 718 509 36 34 67 61 69 62 2 0
133 -66 290 -146z m-349 -3354 l0 -920 -902 -2 -901 -3 401 -95 c221 -52 402
-99 401 -105 0 -5 -40 -75 -88 -155 -66 -107 -86 -148 -77 -156 6 -6 86 -52
178 -102 314 -173 908 -527 922 -551 3 -5 -45 -62 -107 -127 -62 -66 -192
-212 -290 -326 l-176 -207 -243 162 c-266 178 -510 331 -722 455 l-138 81
-116 -93 c-263 -210 -532 -381 -877 -557 -186 -95 -502 -236 -509 -227 -2 1
-18 26 -36 53 -100 149 -300 393 -454 552 -64 67 -94 104 -85 108 8 2 84 29
169 58 466 162 854 361 1175 601 134 101 346 302 438 416 57 71 147 202 147
214 0 3 -200 6 -445 6 l-445 0 0 920 0 920 1390 0 1390 0 0 -920z m3180 0 l0
-920 -1405 0 -1405 0 0 920 0 920 1405 0 1405 0 0 -920z m-1308 -1021 c238
-39 434 -72 436 -74 4 -4 -62 -154 -117 -262 -28 -57 -51 -107 -51 -113 0 -5
73 -33 162 -61 416 -132 1066 -375 1523 -568 l185 -78 -286 -339 c-338 -402
-310 -370 -326 -357 -42 35 -621 290 -973 428 -235 92 -689 258 -757 276 l-45
12 -93 -82 c-273 -241 -540 -414 -936 -608 -196 -96 -217 -104 -227 -88 -27
50 -233 282 -401 453 -104 105 -187 194 -185 196 2 2 29 11 59 21 130 42 376
144 506 211 497 254 823 564 1022 972 35 72 66 132 68 132 2 0 198 -32 436
-71z"/>
<path d="M5905 7217 c-209 -140 -533 -326 -802 -461 -73 -36 -133 -68 -133
-71 0 -3 456 -5 1013 -4 667 0 1007 4 997 10 -8 5 -98 54 -200 108 -199 105
-511 291 -677 403 -56 37 -106 68 -110 68 -5 0 -44 -24 -88 -53z"/>
<path d="M3940 4815 l0 -275 545 0 545 0 0 275 0 275 -545 0 -545 0 0 -275z"/>
<path d="M7090 4815 l0 -275 560 0 560 0 0 275 0 275 -560 0 -560 0 0 -275z"/>
</g>
</svg>
